<mxfile host="app.diagrams.net" modified="2023-02-22T16:44:10.223Z" agent="5.0 (Windows)" etag="jWk62fkSUujV3rDeeT5Y" version="20.8.22" type="github">
  <diagram name="Page-1" id="HwcqYkM1wlj6etJs0bhk">
    <mxGraphModel dx="1836" dy="542" grid="1" gridSize="10" guides="1" tooltips="1" connect="1" arrows="1" fold="1" page="1" pageScale="1" pageWidth="850" pageHeight="1100" math="0" shadow="0">
      <root>
        <mxCell id="0" />
        <mxCell id="1" parent="0" />
        <mxCell id="ap6zdRFmKXlqy5EZkJmo-1" value="" style="rounded=0;whiteSpace=wrap;html=1;" vertex="1" parent="1">
          <mxGeometry x="-60" width="1130" height="550" as="geometry" />
        </mxCell>
        <mxCell id="ap6zdRFmKXlqy5EZkJmo-2" value="" style="rounded=0;whiteSpace=wrap;html=1;" vertex="1" parent="1">
          <mxGeometry x="-60" width="60" height="550" as="geometry" />
        </mxCell>
        <mxCell id="ap6zdRFmKXlqy5EZkJmo-3" value="" style="rounded=0;whiteSpace=wrap;html=1;" vertex="1" parent="1">
          <mxGeometry width="200" height="550" as="geometry" />
        </mxCell>
        <mxCell id="ap6zdRFmKXlqy5EZkJmo-4" value="Chart Overview" style="text;strokeColor=none;fillColor=none;align=left;verticalAlign=middle;spacingLeft=4;spacingRight=4;overflow=hidden;points=[[0,0.5],[1,0.5]];portConstraint=eastwest;rotatable=0;whiteSpace=wrap;html=1;" vertex="1" parent="1">
          <mxGeometry x="50" y="220" width="110" height="30" as="geometry" />
        </mxCell>
        <mxCell id="ap6zdRFmKXlqy5EZkJmo-5" value="Personal Details" style="text;strokeColor=none;fillColor=none;align=left;verticalAlign=middle;spacingLeft=4;spacingRight=4;overflow=hidden;points=[[0,0.5],[1,0.5]];portConstraint=eastwest;rotatable=0;whiteSpace=wrap;html=1;" vertex="1" parent="1">
          <mxGeometry x="50" y="250" width="110" height="30" as="geometry" />
        </mxCell>
        <mxCell id="ap6zdRFmKXlqy5EZkJmo-6" value="Timeline" style="text;strokeColor=none;fillColor=none;align=left;verticalAlign=middle;spacingLeft=4;spacingRight=4;overflow=hidden;points=[[0,0.5],[1,0.5]];portConstraint=eastwest;rotatable=0;whiteSpace=wrap;html=1;" vertex="1" parent="1">
          <mxGeometry x="50" y="280" width="80" height="30" as="geometry" />
        </mxCell>
        <mxCell id="ap6zdRFmKXlqy5EZkJmo-7" value="" style="rounded=0;whiteSpace=wrap;html=1;" vertex="1" parent="1">
          <mxGeometry x="10" y="10" width="180" height="170" as="geometry" />
        </mxCell>
        <mxCell id="ap6zdRFmKXlqy5EZkJmo-8" value="" style="shape=actor;whiteSpace=wrap;html=1;" vertex="1" parent="1">
          <mxGeometry x="70" y="57.5" width="60" height="75" as="geometry" />
        </mxCell>
      </root>
    </mxGraphModel>
  </diagram>
</mxfile>
